<?xml version="1.0" encoding="UTF-8"?>
<svg id="Layer_1" xmlns="http://www.w3.org/2000/svg" version="1.1" viewBox="0 0 50 35">
  <!-- Generator: Adobe Illustrator 29.0.1, SVG Export Plug-In . SVG Version: 2.1.0 Build 192)  -->
  <defs>
    <style>
      .st0 {
        fill: #010101;
      }

      .st1 {
        fill: #fff;
      }
    </style>
  </defs>
  <g>
    <path class="st1" d="M26.65,15.86s-.04.09-.1.06l.15.16c-.42.83.1,1.08.63,1.23,1.23.37,4.59.47,5.83.21,1.52-.32,3.25-1.19,4.74-1.77,1.07-.42,2.16-.8,3.22-1.27l.07.1c-.06.16-.93.42-1.11.49-.01.12.11.06.16.05.16-.03.44-.28.52-.05l-1.89.52.15.19-.68.13c.75.01,1.49-.11,2.23-.26l-.05-.19.19.1-.1.16,1.28-.19-.02.13h.12c.03-.22.09-.04.23-.08.05-.02.52-.32.43-.44-.33.36-.52.01-.87.06l.15-.16c-.11-.1-.37-.57-.24-.71l.75-.35.07.35-.29.1.24.06c-.13.22-.23.34-.45.25-.09-.04-.16-.39-.27-.28l.27.55c.05-.23.26-.13.39-.26l-.07.19c.55,0,.19-.78.44-1.1l.1.97c.06-.31.09-.67,0-.97,1.07-.41,2.14-.78,3.19-1.28.8-.38,1.81-.82,2.39-1.67s.84-1.58.01-2.36c-2.02-1.91-3.75-.81-5.87.04-1.23.5-2.45,1.06-3.68,1.57-.17-.15-.23-.37-.42-.51-.38-.28-.74-.22-1.14-.09-.32.1-1.15.59-1.37.6-.11,0-.27-.1-.4-.11-3.64-.37-7.26-1-10.9-1.37-.2-.02-.44-.12-.63-.13-.86-.05-1.78.6-2.59.91-.02.11.02.13.08.18.27.21.83.34,1.13.21-.05-.18-.18-.18-.29-.13-.02-.11.02-.14.08-.18.18-.12.52-.17.73-.26.28-.12.55-.31.84-.34l-.1-.19c2.25.09,4.46.73,6.71.91l4.87.84-.19.13.15.06s-.53.5-.63.39l.1.13-.58.07.24.19-.58-.06.39.19c-.3.12-.6-.09-.92.07.04.2.43,0,.39.26-.25.03-.44-.17-.69-.12-.31.06-.71.46-1.05.44l.15.19c-.12.02-.23-.07-.36-.06-.04,0-.67.26-.71.29-.02.02-.06.08-.05.1l.46.13.29.2c-.39.14-1.33.72-1.68.64-.14-.04-.49-.27-.65-.37-.69-.4-1.35-.99-2.03-1.37-.24-.13-.49-.3-.76-.25-.15.03-1.17.45-1.25.54-.04.05-.08.09-.03.16l.27.13-.05-.19,1.31-.48,3,2.05-.05.31c-.12-.03-.5.24-.48-.05l.19-.13c-.23,0-.48.2-.69.19-.23,0-.99-.14-1.21-.2-.16-.05-.23-.3-.35-.31-.35.16-.71.18-1.07.25-.07.02-.15,0-.17.13,1.07-.03,2.12.21,3.17.32.06,0,.14-.06.19-.05.17.02.57.08.68.25s.02.52.27.23c-.09-.21-.13-.41-.34-.42-.02-.09.02-.11.05-.16.22-.42,1.73-.7,2.11-1.07l.07.19c-.63.27-1.35.51-1.95.86-.07.04-.16.06-.18.18l2.16-.97.07.19c-.05.07-.76.17-.82.39.24,0,.64-.34.85-.32.09,0,.14.15.24.2.1.05.25-.04.33.05.06.06.03.31.2.33.15.05.16-.22.25-.26.11-.07.2.12.28.12s.16-.2.31-.23c.23-.04.48.24.61.23.03,0,.03-.11.06-.13.17-.07.41-.09.59-.14l-.15-.06c.18-.31.45.06.68-.06l-.24-.13.73-.23c-.12-.14-.4.16-.48-.03l1.91-.52c.14,0,.05.08-.01.12-.52.29-1.21.46-1.76.6-.01.17,0,.13.11.12.5-.08,1.12-.48,1.64-.57-.01.11-.1.11-.16.15-.41.24-.86.38-1.3.5.03.14.12.13.21.12.29-.05.74-.38,1.03-.51.73-.34,1.49-.66,2.23-1.03l.02.19c-.14.09-.3.04-.44.1-.08.04-.17.17-.27.22-.74.36-1.49.7-2.24.99l.16.05,3.43-1.55-.79-.18-.33.12.1.19-.68.06.1.19c-.19.05-.28.12-.39-.13l.29-.19-.24.03c.03-.18.42-.33.43-.36.1-.21-.09-.17-.13-.21-.03-.03.02-.14-.06-.11-.03.3-.17.46-.31.66-.03.05-.01.15-.06.19-.08.05-.37.08-.48.07-.16-.01-.3-.14-.42-.12-.19.02-.53.24-.74.31-.38.12-.75.27-1.13.33-.03.08.21.08.1.19-.1.11-.18-.23-.29-.13l.05.19-.22-.13c-.09.04.03.24-.1.19-.07-.03-.11-.1-.17-.13v.19l-.26-.07-.06.14-.19-.07-.06.14-.23-.07-.06.14c-.25-.11-.5.25-.81.05l-.05.13c-.37-.11-.79-.75-.49-1.23l.07.26.15-.07v-.29c.31-.2.62-.43.94-.63.42-.27.99-.48,1.3-.89l.13.05.08-.19.02.13h.1c0-.11.01-.26.12-.26l.07.26c-.01-.27.04-.5.21-.66.15-.14,1.43-.81,1.63-.87.95-.24,1.33.73,1.31,1.85h.15v-.52c.33.05.61.22.92,0l-.02.19.27-.26-.05.32c.19.06.25-.15.39-.26l-.1.32.53-.19-.15.23c.2.16.18-.25.34-.23l-.1.32c.2.09.17-.24.22-.26l.46.12.12.41c.29-.47-.34-.74-.59-.83-.28-.1-.53.08-.18-.53l.12.26c.03-.52,0-.4.34-.52,0,.12-.07.25-.05.39l.22-.26.07.13.1-.1c-.04-.4-.15-.22-.34-.16,0-.09.02-.16-.07-.12l-1.65.71c-.12,0-.31.06-.36-.13l1.89-.78c-.41.01-2.11.89-2.36.76-.01,0-.15-.19-.11-.24l5.46-2.26.21.05-3.38,1.35-1.85.86.23-.05c1.53-.66,3.06-1.36,4.61-1.94.93-.34,1.84-.74,2.81-.42.01.17,0,.11-.07.13-.42.11-.88.08-1.26.39v.26c.08.21.67.06.82,0,.05-.02.03-.06.03-.06-.12-.01-.25-.05-.24-.26.24-.04.41-.13.63.06-.05.16-.29.09-.38.14-.01,0,0,.05,0,.05.35.04,1.39-.34,1.63-.11.04.04.05.15.11.21.14.16.42.41.46.67.05.29-.36.85-.56.95l.07.1-.27.23.09.03c.04.16-.06.11-.08.15-.03.05,0,.14-.05.18-.05.05-.21.06-.29.11-1.52.94-3.25,1.48-4.85,2.14-1.26.53-2.53,1.06-3.78,1.62l-.35.02,1.99-.85-.16-.05c-1.88.85-3.75,1.8-5.71,2.32l.68-.26-.16-.05c-1.32.48-2.66.97-4.03,1.09-.07.09-.3.1-.32.19.35-.02.69-.06,1.04-.06,1.26-.13,2.44-.67,3.66-1.04l-.14.11c-.72.27-1.39.6-2.13.78s-1.48.28-2.22.34c-.11,0-.24.07-.22-.13-.77.05-1.26,0-2.01-.06-.18-.02-.94.08-.99-.1l.1-.13c-.08-.18-.2-.14-.34-.16l.1.19c-.32.3-.58-.17-.92-.19-.05-.22.2-.13.28-.08.06.03.06.13.07.14.02.01.19-.08.26.02l.07-.13.1.19-.05-.26c.09,0,.18-.06.27-.07.17,0,.13.21.2-.13l1.81-.84c.01-.12-.1-.05-.15-.04-.71.23-1.49.8-2.22,1.06l-.16-.12,2.62-1.24c0-.13-.15-.05-.2-.04-.42.13-.87.45-1.29.62l-.17-.13,1.65-.68.19-.23-.39.19.1-.26-.39.13s.15-.31-.11-.19c-.05.02-.07.17-.13.23-.2.23-.5.18-.72.27-.62.24-1.27.61-1.9.67.55-.4,1.73-.65,2.38-.94.08-.04.14-.12.19-.2-.13-.24-.26.17-.44.1l.1-.19c-.4-.16-.27.3-.29.32,0,0-.11,0-.16.02-.22.1-.43.28-.67.18l.05.13c-.11-.02-.19.08-.28.12-.04.02-.16.04-.08-.05v-.06c-.47.14-.9.44-1.38.45.01.1.23.16.29.17.09.01.19-.03.29-.04h-.01Z"/>
    <path class="st1" d="M43.85,9.42c0-.53-.43-.29-.39.13.14-.09.23-.22.39-.13Z"/>
    <path class="st1" d="M23.98,9.23c-.26,0-.6-.05-.78.26.25.01.58-.02.78-.26Z"/>
    <path class="st1" d="M42.79,9.42l-.02-.13-.85.45.34-.06c-.26.73.05.17.29.26.06-.28-.17-.18-.15-.39l.39-.13h0Z"/>
    <path class="st1" d="M24.76,9.43c-.33-.03-.7-.18-.97.19.31.1.54.07.84-.08.05-.02.14-.02.13-.11Z"/>
    <path class="st1" d="M25.44,9.62c-.18-.05-.31-.09-.5-.05-.16.03-.85.25-.97.32-.11.06-.02.27-.34.12l-.37.19c.54.35.94-.29,1.47-.27l.71-.31h0Z"/>
    <polygon class="st1" points="26.26 9.82 25.71 9.69 24.86 10.07 25.36 10.18 26.26 9.82"/>
    <path class="st1" d="M38.56,10.1s-.32-.32-.36-.33c-.72-.25-1.02,1.01-.75,1.72.11.29.23.16.33.41l.12-.13v.26c.27.05.06-.12.12-.32l.22.55c-.33.05-.57-.08-.82-.36.08.32.35.61.6.61.79.02.95-1.76.54-2.41h0Z"/>
    <path class="st1" d="M23.35,9.88l-.36-.06-.42.19c.23.09.6.16.78-.13h0Z"/>
    <path class="st1" d="M26.89,9.95c-.32-.08-.98.09-1.25.31-.08.06-.11.21-.14.21-.17.05-.38-.11-.72.06-.06.03-.09-.05-.07.13.19-.07.43.15.6.12.22-.04,1.19-.54,1.43-.68.06-.04.14-.03.16-.15h0Z"/>
    <polygon class="st1" points="27.67 10.14 27.11 10.08 26.26 10.53 26.81 10.58 27.67 10.14"/>
    <path class="st1" d="M24.91,10.27l-.51-.07-.46.2c.32.14.7.18.97-.13h0Z"/>
    <path class="st1" d="M28.25,10.27c-.45-.15-.82.3-1.26.32l.05.26c.35-.16.71-.26,1.06-.44.06-.03.14-.04.16-.15Z"/>
    <path class="st1" d="M29.02,10.47l-.55-.06-1,.45c.19-.08.39.14.55.12.15-.02.7-.3.87-.39.05-.03.14-.02.13-.11Z"/>
    <polygon class="st1" points="29.7 10.66 29.27 10.56 28.25 11.05 28.7 11.1 29.7 10.66"/>
    <polygon class="st1" points="26.41 10.73 25.95 10.62 25.54 10.85 25.99 10.98 26.41 10.73"/>
    <path class="st1" d="M47.83,10.66l-.22.06-.56.32c.27-.04.6-.07.78-.39h0Z"/>
    <path class="st1" d="M30.38,10.79c-.18-.05-.31-.09-.5-.05-.34.07-1.43.59-1.79.78-.05.03-.14.02-.13.11.38.13.72.16,1.01-.25l1.42-.59h0Z"/>
    <path class="st1" d="M26.89,10.85c-.24-.04-.46.04-.68.16.15.2.41.07.57-.02.07-.04.13.04.11-.15Z"/>
    <path class="st1" d="M31.01,10.92c-.53-.18-.99.3-1.5.42.1.15.27.11.4.08l1.1-.5Z"/>
    <path class="st1" d="M27.37,10.94c-.09-.07-.49.21-.62.21.29.28.58.09.87-.03,0-.12-.14-.04-.21-.06-.04-.01-.03-.1-.04-.11h0Z"/>
    <path class="st1" d="M33.73,10.99c-.13-.02-.23-.07-.36-.07-.05,0-.26.03-.27.13.13.02.23.07.36.07.05,0,.26-.03.27-.13Z"/>
    <path class="st1" d="M31.64,11.05c-.49-.04-1,.2-1.46.41-.05.02-.15.01-.14.11.47.1.99-.16,1.44-.38.06-.03.15-.01.16-.14h0Z"/>
    <path class="st1" d="M28.3,11.25c-.29-.08-.53-.08-.8.06-.07.03-.08-.02-.07.14l.35.05.52-.25h0Z"/>
    <path class="st1" d="M32.22,11.18l-.44.03-2.18.94c.09.01.19.09.28.09.19.01,1.9-.76,2.18-.92.06-.04.14-.04.16-.15h0Z"/>
    <path class="st1" d="M32.85,11.38c-.15-.06-.29-.1-.45-.05l-1.44.7.38.02s1.51-.67,1.51-.67Z"/>
    <path class="st1" d="M33.39,11.44c-.13,0-.26-.02-.39.03-.14.05-.1.3-.39.18l-1.05.51c.13.03.21.07.34.04.31-.07,1.06-.45,1.39-.62.07-.04.14.06.12-.14h0Z"/>
    <path class="st1" d="M37.22,12.46c.08.06.14,0,.18-.08l-.43-.88.19.78s-.29-.21-.24.06c.08.01.18-.02.26,0,.04.01.03.11.04.11h0Z"/>
    <polygon class="st1" points="46.37 11.51 45.8 11.68 43.32 12.8 44.42 12.43 46.37 11.51"/>
    <polygon class="st1" points="23.65 11.57 23.09 11.7 21.76 12.22 22.89 11.89 23.65 11.57"/>
    <polygon class="st1" points="29.41 11.57 29.06 11.58 28.64 11.83 28.82 11.85 29.41 11.57"/>
    <polygon class="st1" points="29.99 11.77 29.59 11.7 29.02 11.96 29.48 12.02 29.99 11.77"/>
    <path class="st1" d="M31.06,12.09l-.28-.02-.59.28c.26.16.5-.03.75-.13.07-.03.15.08.12-.13h0Z"/>
    <path class="st1" d="M31.59,12.35c-.04-.17-.2-.14-.31-.12l-.61.32c.34.15.59-.19.92-.19Z"/>
    <polygon class="st1" points="36.92 12.67 36.9 12.55 35.37 13.13 36.92 12.67"/>
    <path class="st1" d="M40.27,12.68l-2.96,1.3c.35-.03.68-.24,1.01-.38.1-.04.14-.06.22-.1.52-.23,1.09-.44,1.6-.71.05-.03.15-.02.13-.11h0Z"/>
    <path class="st1" d="M26.84,12.93c-.19-.46-.45.12-.73.1.06.13.1.05.17.04.19-.04.37-.14.56-.14Z"/>
    <path class="st1" d="M40.46,13.32c-.65.22-1.3.48-1.94.75-.34.14-.69.29-1.03.44-.05.02-.15.01-.14.11l1.39-.5,1.71-.8h0Z"/>
    <path class="st1" d="M42.06,13.32l-.92.39c.19-.01.39-.1.57-.18.1-.04.3-.09.35-.21h0Z"/>
    <polygon class="st1" points="39.44 13.39 39.21 13.43 38.38 13.84 38.61 13.8 39.44 13.39"/>
    <path class="st1" d="M41.19,13.39c-1.87.53-3.62,1.61-5.44,2.35l-.13.11,2.11-.84,3.46-1.62h0Z"/>
    <path class="st1" d="M29.12,13.58c-.19-.08-.36.17-.58.16.1.17.36.05.48,0,.08-.04.12,0,.1-.16h0Z"/>
    <path class="st1" d="M25.92,13.97c-.67-.12-1.08-.1-1.71.21-.35.17-.83.43-1.1.76l.39.04,1.45-.76c0-.12-.21-.06-.25-.05-.3.1-.64.36-.96.44.07-.14.24-.2.36-.27.52-.31,1.03-.48,1.61-.31,0,0,.22-.07.22-.07Z"/>
    <polygon class="st1" points="36.1 14.04 35.59 13.97 34.79 14.23 35.54 14.36 36.1 14.04"/>
    <path class="st1" d="M32.08,14.49c.08-.81-.59-.1-.19.06l.1-.26.1.19h0Z"/>
    <path class="st1" d="M27.28,14.36l-2.16.9-.07.14c.16.08.36.03.5.07.03,0,.03.1.1.14.41.21,2.15-.65,2.65-.89.05-.03.2-.07.2-.16l-2.57.97c-.02-.14.05-.15.12-.2.48-.32,1.22-.45,1.72-.78-.17-.34-.35.03-.51.12-.56.32-1.16.56-1.76.72-.02-.17.03-.11.1-.16.31-.2.91-.49,1.25-.61.16-.06.43.08.45-.28h0Z"/>
    <path class="st1" d="M31.54,14.68l-.07-.31-.17.03-.09.2c.18.26.08-.06.24-.03l-.05.19.14-.07h0Z"/>
    <path class="st1" d="M25.73,14.69l-1.36.52c.34.14.58.06.89-.13.03-.02.04-.11.07-.13.12-.08.34-.07.4-.26h0Z"/>
    <path class="st1" d="M24.76,14.82c-.2,0-.4.03-.59.08-.08.02-.29.08-.33.18l.3.05s.62-.31.62-.31Z"/>
    <path class="st1" d="M42.21,15.73c-.12-.02-.09.01-.12.13-.06.26-.09,1.53-.17,1.66l-.78.35c.35.03.68-.15,1-.32l.07-1.82h0Z"/>
    <path class="st1" d="M41.14,16.12c-.3.08-.61.15-.91.24-.06.02-.2-.02-.16.12s.12.07.18.06c.18-.03.59-.15.76-.22.08-.04.14-.05.12-.19h0Z"/>
    <path class="st1" d="M41.24,16.44c-.27,0-.58.1-.83.21-.05.02-.15.02-.14.11.25.04.6-.08.86-.19.08-.03.14.05.11-.14Z"/>
    <path class="st1" d="M41.53,16.63c-.09-.11-.16.12-.17.12-.04,0-.12-.09-.18-.04l-.91.34c.06.13.1.07.18.06.22-.05.77-.19.96-.28.05-.02.19-.11.12-.19h0Z"/>
    <polygon class="st1" points="37.75 16.77 34.49 17.82 31.16 19.1 34.8 17.91 37.75 16.77"/>
    <path class="st1" d="M38.09,17.74l-1.71.54-2.32.89c1.25-.36,2.5-.79,3.73-1.27.08-.03.26-.06.29-.16Z"/>
    <polygon class="st1" points="29.65 18.46 29.1 18.59 27.62 19.17 28.56 18.91 29.65 18.46"/>
    <path class="st0" d="M41.58,10.01c-.34.12-.32,0-.34.52l-.12-.26c-.35.61-.09.43.18.53.25.09.88.36.59.83l-.12-.41-.46-.12c-.06.02-.02.35-.22.26l.1-.32c-.16-.03-.14.39-.34.23l.15-.23-.53.19.1-.32c-.14.11-.19.32-.39.26l.05-.32-.27.26.02-.19c-.31.22-.59.05-.92,0v.52h-.15c.02-1.13-.36-2.1-1.31-1.85-.2.05-1.48.72-1.63.87-.17.16-.22.4-.21.66l-.07-.26c-.11,0-.12.15-.12.26h-.1l-.02-.13-.08.19-.13-.05c-.31.41-.88.62-1.3.89-.32.2-.62.42-.94.63v.29l-.14.07-.07-.26c-.3.48.12,1.12.49,1.23l.05-.13c.32.2.57-.17.81-.05l.06-.14.23.07.06-.14.19.07.06-.14.26.07v-.19c.06.04.09.1.17.13.13.05,0-.16.1-.19l.22.13-.05-.19c.12-.1.19.24.29.13.11-.12-.13-.11-.1-.19.39-.06.76-.21,1.13-.33.21-.07.55-.28.74-.31.12-.02.27.11.42.12.1,0,.39-.02.48-.07.05-.03.03-.14.06-.19.14-.2.27-.36.31-.66.08-.03.03.08.06.11.04.04.23,0,.13.21-.01.03-.4.18-.43.36l.24-.03-.29.19c.11.25.19.18.39.13l-.1-.19.68-.06-.1-.19.33-.12.79.18-3.43,1.55-.16-.05c.76-.29,1.5-.63,2.24-.99.11-.05.19-.18.27-.22.14-.06.3-.01.44-.1l-.02-.19c-.74.37-1.5.7-2.23,1.03-.29.13-.74.47-1.03.51-.09.02-.17.03-.21-.12.44-.12.88-.27,1.3-.5.06-.04.14-.04.16-.15-.52.09-1.14.49-1.64.57-.1.02-.12.06-.11-.12.55-.14,1.24-.31,1.76-.6.06-.04.15-.12.01-.12l-1.91.52c.09.19.36-.1.48.03l-.73.23.24.13c-.22.13-.5-.24-.68.06l.15.06c-.18.04-.42.06-.59.14-.04.02-.04.12-.06.13-.13,0-.38-.27-.61-.23-.14.03-.23.23-.31.23s-.17-.2-.28-.12c-.09.04-.09.31-.25.26-.18-.02-.14-.27-.2-.33-.09-.09-.23,0-.33-.05-.09-.05-.15-.19-.24-.2-.22-.02-.61.33-.85.32.07-.22.78-.32.82-.39l-.07-.19-2.16.97c.02-.11.11-.14.18-.18.6-.36,1.32-.59,1.95-.86l-.07-.19c-.38.37-1.89.65-2.11,1.07-.03.06-.07.07-.05.16.21.01.25.22.34.42-.25.3-.16-.06-.27-.23s-.51-.23-.68-.25c-.06,0-.13.06-.19.05-1.06-.12-2.11-.35-3.17-.32.02-.13.1-.11.17-.13.36-.08.72-.09,1.07-.25.12,0,.19.26.35.31.22.07.98.19,1.21.2.22,0,.47-.19.69-.19l-.19.13c-.03.29.36.02.48.05l.05-.31-3-2.05-1.31.48.05.19-.27-.13c-.06-.08-.02-.11.03-.16.07-.09,1.1-.51,1.25-.54.26-.05.51.12.76.25.68.38,1.35.97,2.03,1.37.16.09.51.33.65.37.35.09,1.3-.5,1.68-.64l-.29-.2-.46-.13s.02-.08.05-.1c.04-.03.67-.29.71-.29.12-.01.23.08.36.06l-.15-.19c.34.02.75-.38,1.05-.44.25-.05.44.14.69.12.04-.26-.35-.06-.39-.26.32-.16.62.05.92-.07l-.39-.19.58.06-.24-.19.58-.07-.1-.13c.1.11.67-.35.63-.39l-.15-.06.19-.13-4.87-.84c-2.25-.18-4.46-.82-6.71-.91l.1.19c-.29.03-.56.22-.84.34-.21.09-.55.14-.73.26-.07.04-.1.07-.08.18.12-.05.24-.05.29.13-.3.13-.86,0-1.13-.21-.06-.05-.1-.06-.08-.18.81-.31,1.73-.96,2.59-.91.19.01.44.11.63.13,3.64.36,7.26.99,10.9,1.37.13.01.29.11.4.11.22,0,1.05-.5,1.37-.6.4-.12.77-.18,1.14.09.2.15.26.36.42.51,1.23-.51,2.45-1.07,3.68-1.57,2.12-.85,3.85-1.95,5.87-.04.83.78.57,1.5-.01,2.36s-1.58,1.29-2.39,1.67c-1.04.5-2.12.88-3.19,1.28.09.3.06.67,0,.97l-.1-.97c-.25.33.11,1.1-.44,1.1l.07-.19c-.13.13-.34.03-.39.26l-.27-.55c.11-.11.19.24.27.28.22.1.33-.03.45-.25l-.24-.06.29-.1-.07-.35-.75.35c-.13.15.13.61.24.71l-.15.16c.35-.05.55.3.87-.06.09.13-.37.43-.43.44-.13.04-.19-.14-.23.08h-.12l.02-.13-1.28.19.1-.16-.19-.1.05.19c-.74.15-1.48.27-2.23.26l.68-.13-.15-.19,1.89-.52c-.08-.24-.36.02-.52.05-.05.01-.17.07-.16-.05.19-.07,1.05-.32,1.11-.49l-.07-.1c-1.06.47-2.15.84-3.22,1.27-1.49.58-3.22,1.45-4.74,1.77-1.24.26-4.6.16-5.83-.21-.53-.16-1.04-.41-.63-1.23l-.15-.16c.06.02.08-.05.1-.06-.1,0-.2.05-.29.04-.05,0-.28-.06-.29-.17.48-.01.91-.31,1.39-.45v.06c-.08.09.04.07.08.05.09-.04.17-.13.28-.12l-.05-.13c.24.11.45-.08.67-.18.05-.02.15,0,.16-.02.02-.02-.11-.48.29-.32l-.1.19c.17.08.3-.34.44-.1-.05.08-.11.16-.19.2-.64.29-1.83.54-2.38.94.64-.05,1.28-.44,1.9-.67.22-.08.52-.04.72-.27.06-.06.08-.21.13-.23.26-.11.1.17.11.19l.39-.13-.1.26.39-.19-.19.23-1.65.68.17.13c.42-.17.86-.49,1.29-.62.05-.02.2-.09.2.04l-2.62,1.24.16.12c.72-.26,1.5-.84,2.22-1.06.05-.02.16-.09.15.04l-1.81.84c-.07.34-.03.12-.2.13-.09,0-.18.07-.27.07l.05.26-.1-.19-.07.13c-.07-.09-.24,0-.26-.02,0,0,0-.11-.07-.14-.08-.04-.33-.13-.28.08.35.03.6.5.92.19l-.1-.19c.13.03.26-.02.34.16l-.1.13c.05.17.81.08.99.1.75.07,1.25.11,2.01.06-.03.2.11.14.22.13.74-.06,1.49-.17,2.22-.34s1.41-.51,2.13-.78l.14-.11c-1.22.37-2.4.91-3.66,1.04-.35,0-.69.04-1.04.06.01-.09.25-.11.32-.19,1.38-.12,2.71-.61,4.03-1.09l.16.05-.68.26c1.95-.53,3.82-1.47,5.71-2.32l.16.05-1.99.85.35-.02c1.26-.56,2.52-1.1,3.78-1.62,1.6-.67,3.33-1.2,4.85-2.14.09-.05.24-.06.29-.11.04-.04.02-.12.05-.18.02-.04.12,0,.08-.15l-.09-.03.27-.23-.07-.1c.2-.1.6-.66.56-.95-.04-.26-.32-.51-.46-.67-.05-.06-.07-.18-.11-.21-.24-.23-1.28.15-1.63.11,0,0,0-.05,0-.05.09-.05.33.02.38-.14-.22-.19-.39-.11-.63-.06,0,.21.12.25.24.26,0,0,.01.05-.03.06-.15.06-.74.21-.82,0v-.26c.38-.31.84-.28,1.26-.39.08-.02.08.04.07-.13-.97-.32-1.88.08-2.81.42-1.55.57-3.08,1.27-4.61,1.94l-.23.05,1.85-.86,3.38-1.35-.21-.05-5.46,2.26s.1.24.11.24c.25.13,1.95-.75,2.36-.76l-1.89.78c.05.19.24.12.36.13l1.65-.71c.09-.04.07.04.07.12.19-.06.3-.24.34.16l-.1.1-.07-.13-.22.26c-.02-.14.04-.27.05-.39h.01ZM23.65,8.65c-.57.18-1.19.41-1.73.7-.07.04-.13-.04-.11.15.55-.19,1.21-.4,1.74-.68.08-.04.12,0,.1-.16ZM40.85,10.33l-.27.06.02.3.29.03s-.05-.39-.05-.39ZM47.73,11.25c-.89.51-1.78,1.02-2.7,1.41-1.75.74-3.54,1.34-5.3,2.05-1.11.45-2.21.95-3.32,1.39l-.16.15c1.64-.61,3.26-1.33,4.89-1.98,1.25-.5,2.52-.91,3.77-1.45.95-.41,2.01-.8,2.82-1.58h0ZM32.85,12.22s-.68.32-.76.37c-.06.04-.14.03-.16.15.12.1,1.06-.34.92-.52h0ZM41.55,14.86c-.04-.06-.05-.17-.14-.17-.38.09.02.25.09.46l.12-.23c.02-.05-.05-.02-.07-.06ZM29.51,15.01l-2.37,1.04c.77-.06,1.49-.61,2.23-.88l.15-.16Z"/>
    <path class="st0" d="M27.28,14.36c-.02.36-.28.22-.45.28-.34.11-.94.4-1.25.61-.07.05-.12-.01-.1.16.6-.17,1.2-.4,1.76-.72.16-.09.34-.47.51-.12-.51.32-1.24.45-1.72.78-.07.05-.14.06-.12.2l2.57-.97c0,.09-.14.13-.2.16-.49.24-2.24,1.1-2.65.89-.07-.04-.07-.13-.1-.14-.14-.04-.34.01-.5-.07l.07-.14,2.16-.9h0Z"/>
    <polygon class="st0" points="37.75 16.77 34.8 17.91 31.16 19.1 34.49 17.82 37.75 16.77"/>
    <path class="st0" d="M41.19,13.39l-3.46,1.62-2.11.84.13-.11c1.82-.74,3.57-1.82,5.44-2.35h0Z"/>
    <path class="st0" d="M30.38,10.79l-1.42.59c-.28.41-.62.39-1.01.25-.01-.09.08-.08.13-.11.36-.19,1.46-.71,1.79-.78.18-.04.32,0,.5.05h0Z"/>
    <path class="st0" d="M32.22,11.18c-.01.11-.1.11-.16.15-.28.16-1.98.94-2.18.92-.09,0-.19-.08-.28-.09l2.18-.94.44-.03h0Z"/>
    <path class="st0" d="M26.89,9.95c-.01.11-.1.11-.16.15-.24.15-1.21.64-1.43.68-.16.03-.4-.19-.6-.12-.02-.18.01-.1.07-.13.34-.17.55-.01.72-.06.03,0,.06-.15.14-.21.27-.21.93-.39,1.25-.31h0Z"/>
    <path class="st0" d="M25.92,13.97l-.22.07c-.57-.17-1.08,0-1.61.31-.11.06-.29.13-.36.27.32-.08.65-.34.96-.44.05-.02.26-.08.25.05l-1.45.76-.39-.04c.27-.33.75-.59,1.1-.76.63-.31,1.04-.33,1.71-.21Z"/>
    <path class="st0" d="M25.44,9.62l-.71.31c-.52-.02-.93.63-1.47.27l.37-.19c.32.15.23-.05.34-.12.13-.07.82-.29.97-.32.18-.04.32,0,.5.05h0Z"/>
    <path class="st0" d="M38.09,17.74c-.03.1-.21.13-.29.16-1.23.48-2.48.9-3.73,1.27l2.32-.89,1.71-.54Z"/>
    <path class="st0" d="M32.85,11.38l-1.51.67-.38-.02,1.44-.7c.15-.05.3-.01.45.05Z"/>
    <path class="st0" d="M29.02,10.47c.01.09-.08.08-.13.11-.17.09-.72.37-.87.39-.16.02-.36-.19-.55-.12l1-.45.55.06Z"/>
    <path class="st0" d="M42.21,15.73l-.07,1.82c-.32.17-.65.35-1,.32l.78-.35c.08-.13.11-1.4.17-1.66.03-.11,0-.15.12-.13h0Z"/>
    <polygon class="st0" points="27.67 10.14 26.81 10.58 26.26 10.53 27.11 10.08 27.67 10.14"/>
    <polygon class="st0" points="26.26 9.82 25.36 10.18 24.86 10.07 25.71 9.69 26.26 9.82"/>
    <path class="st0" d="M33.39,11.44c.03.2-.04.1-.12.14-.33.17-1.08.55-1.39.62-.14.03-.21,0-.34-.04l1.05-.51c.3.12.26-.12.39-.18.13-.05.26-.02.39-.03h0Z"/>
    <polygon class="st0" points="29.7 10.66 28.7 11.1 28.25 11.05 29.27 10.56 29.7 10.66"/>
    <path class="st0" d="M31.64,11.05c-.02.12-.1.11-.16.14-.44.22-.97.48-1.44.38-.01-.09.08-.09.14-.11.46-.21.98-.45,1.46-.41h0Z"/>
    <path class="st0" d="M40.46,13.32l-1.71.8-1.39.5c-.01-.09.08-.09.14-.11.34-.15.69-.3,1.03-.44.64-.27,1.29-.53,1.94-.75h0Z"/>
    <polygon class="st0" points="46.37 11.51 44.42 12.43 43.32 12.8 45.8 11.68 46.37 11.51"/>
    <path class="st0" d="M40.27,12.68c.01.09-.08.09-.13.11-.51.27-1.08.48-1.6.71-.08.04-.12.06-.22.1-.33.14-.66.34-1.01.38l2.96-1.3h0Z"/>
    <path class="st0" d="M31.01,10.92l-1.1.5c-.13.02-.3.07-.4-.08.51-.12.97-.6,1.5-.42Z"/>
    <polygon class="st0" points="36.1 14.04 35.54 14.36 34.79 14.23 35.59 13.97 36.1 14.04"/>
    <path class="st0" d="M28.25,10.27c-.01.11-.09.12-.16.15-.34.18-.71.28-1.06.44l-.05-.26c.44-.03.81-.48,1.26-.32Z"/>
    <path class="st0" d="M25.73,14.69c-.06.18-.29.18-.4.26-.03.02-.04.11-.07.13-.31.19-.55.27-.89.13l1.36-.52h0Z"/>
    <path class="st0" d="M41.53,16.63c.07.08-.07.17-.12.19-.19.1-.74.24-.96.28-.08.02-.12.08-.18-.06l.91-.34c.06-.04.14.04.18.04.01,0,.07-.23.17-.12h0Z"/>
    <path class="st0" d="M24.76,9.43c.01.09-.08.09-.13.11-.3.15-.52.18-.84.08.26-.37.64-.22.97-.19Z"/>
    <polygon class="st0" points="29.65 18.46 28.56 18.91 27.62 19.17 29.1 18.59 29.65 18.46"/>
    <path class="st0" d="M42.79,9.42l-.39.13c-.03.21.2.11.15.39-.24-.09-.55.47-.29-.26l-.34.06.85-.45.02.13h0Z"/>
    <path class="st0" d="M24.91,10.27c-.27.31-.65.27-.97.13l.46-.2.51.07h0Z"/>
    <polygon class="st0" points="26.41 10.73 25.99 10.98 25.54 10.85 25.95 10.62 26.41 10.73"/>
    <polygon class="st0" points="29.99 11.77 29.48 12.02 29.02 11.96 29.59 11.7 29.99 11.77"/>
    <path class="st0" d="M41.14,16.12c.02.14-.04.16-.12.19-.17.07-.58.2-.76.22-.07.01-.14.07-.18-.06s.1-.1.16-.12c.3-.09.61-.16.91-.24h0Z"/>
    <polygon class="st0" points="23.65 11.57 22.89 11.89 21.76 12.22 23.09 11.7 23.65 11.57"/>
    <path class="st0" d="M27.37,10.94s0,.1.04.11c.07.02.22-.06.21.06-.3.12-.58.31-.87.03.13,0,.53-.28.62-.21h0Z"/>
    <path class="st0" d="M28.3,11.25l-.52.25-.35-.05c-.01-.16,0-.1.07-.14.28-.14.51-.14.8-.06h0Z"/>
    <path class="st0" d="M31.06,12.09c.02.2-.05.1-.12.13-.25.1-.49.29-.75.13l.59-.28.28.02h0Z"/>
    <path class="st0" d="M31.59,12.35c-.33,0-.58.34-.92.19l.61-.32c.11-.01.27-.05.31.12Z"/>
    <path class="st0" d="M41.24,16.44c.02.19-.03.11-.11.14-.25.1-.6.22-.86.19-.01-.09.08-.09.14-.11.26-.11.57-.21.83-.21Z"/>
    <path class="st0" d="M23.35,9.88c-.17.29-.54.21-.78.13l.42-.19.36.06h0Z"/>
    <path class="st0" d="M24.76,14.82l-.62.31-.3-.05c.04-.09.25-.15.33-.18.19-.05.4-.09.59-.08Z"/>
    <path class="st0" d="M23.98,9.23c-.19.24-.53.27-.78.26.17-.31.52-.26.78-.26Z"/>
    <path class="st0" d="M26.89,10.85c.02.18-.03.11-.11.15-.16.09-.42.21-.57.02.22-.12.44-.2.68-.16Z"/>
    <path class="st0" d="M43.85,9.42c-.16-.09-.25.04-.39.13-.05-.42.38-.66.39-.13Z"/>
    <path class="st0" d="M26.84,12.93c-.19,0-.37.1-.56.14-.07.02-.11.09-.17-.04.28.03.54-.56.73-.1Z"/>
    <path class="st0" d="M32.08,14.49l-.1-.19-.1.26c-.39-.17.27-.88.19-.06h0Z"/>
    <path class="st0" d="M47.83,10.66c-.18.32-.5.35-.78.39l.56-.32.22-.06h0Z"/>
    <polygon class="st0" points="29.41 11.57 28.82 11.85 28.64 11.83 29.06 11.58 29.41 11.57"/>
    <polygon class="st0" points="39.44 13.39 38.61 13.8 38.38 13.84 39.21 13.43 39.44 13.39"/>
    <path class="st0" d="M33.73,10.99c0,.1-.22.13-.27.13-.13,0-.24-.04-.36-.07,0-.1.22-.13.27-.13.13,0,.24.04.36.07Z"/>
    <path class="st0" d="M31.54,14.68l-.14.07.05-.19c-.16-.03-.07.29-.24.03l.09-.2.17-.03.07.31h0Z"/>
    <path class="st0" d="M29.12,13.58c.02.16-.01.12-.1.16-.13.06-.39.17-.48,0,.22.01.39-.24.58-.16h0Z"/>
    <path class="st0" d="M42.06,13.32c-.05.12-.25.17-.35.21-.18.08-.38.16-.57.18l.92-.39h0Z"/>
    <path class="st1" d="M47.73,11.25c-.81.77-1.88,1.17-2.82,1.58-1.24.53-2.52.95-3.77,1.45-1.63.65-3.25,1.37-4.89,1.98l.16-.15c1.11-.44,2.21-.94,3.32-1.39,1.76-.71,3.55-1.31,5.3-2.05.92-.39,1.82-.9,2.7-1.41h0Z"/>
    <path class="st1" d="M29.51,15.01l-.15.16c-.74.26-1.46.81-2.23.88l2.37-1.04Z"/>
    <path class="st1" d="M23.65,8.65c.02.17-.02.12-.1.16-.53.29-1.19.49-1.74.68-.02-.18.03-.11.11-.15.54-.29,1.17-.52,1.73-.7Z"/>
    <path class="st1" d="M32.85,12.22c.14.18-.81.62-.92.52.01-.11.1-.11.16-.15.09-.05.74-.41.76-.37h0Z"/>
    <polygon class="st1" points="40.85 10.33 40.9 10.72 40.6 10.69 40.58 10.4 40.85 10.33"/>
    <path class="st1" d="M41.55,14.86s.09,0,.07.06l-.12.23c-.08-.21-.47-.36-.09-.46.08,0,.1.11.14.17Z"/>
    <path class="st0" d="M38.56,10.1c.41.65.25,2.44-.54,2.41-.25,0-.53-.3-.6-.61.25.28.5.4.82.36l-.22-.55c-.06.2.15.38-.12.32v-.26l-.12.13c-.09-.25-.21-.12-.33-.41-.27-.71.03-1.97.75-1.72.04.01.33.29.36.33h0ZM37.99,10.27l.02-.32-.29.39-.02-.19c-.23,0-.12.35-.15.54,0,.02-.2.1-.07.37.11.23.13-.17.22-.06.03.29.2.24.2-.03l-.1-.1c.13-.03.23.14.36.13s.25-.27.27.06l-.24.13c.1.03.37-.21.34.06-.05.06-.34-.12-.29.13.2-.05.5.21.44-.23-.02-.12-.06-.15-.15-.16-.01-.02.27-.38-.05-.32l.05-.26h-.14s-.08-.32-.08-.32l-.32.19h0Z"/>
    <polygon class="st0" points="36.92 12.67 35.37 13.13 36.9 12.55 36.92 12.67"/>
    <path class="st0" d="M37.22,12.46s0-.1-.04-.11c-.08-.02-.18.01-.26,0-.04-.28.23-.05.24-.06l-.19-.78.43.88c-.05.09-.1.14-.18.08h0Z"/>
    <path class="st1" d="M37.99,10.27l.32-.19.08.31h.14s-.05.27-.05.27c.32-.06.04.31.05.32.09,0,.13.05.15.16.06.44-.24.18-.44.23-.05-.25.23-.07.29-.13.03-.28-.24-.04-.34-.06l.24-.13c-.02-.34-.14-.08-.27-.06s-.23-.16-.36-.13l.1.1c0,.27-.16.32-.2.03-.09-.11-.11.3-.22.06-.12-.27.07-.35.07-.37.03-.19-.08-.54.15-.54l.02.19.29-.39-.02.32h0Z"/>
  </g>
  <path class="st0" d="M8.12,27.17c-.71,0-1.26-.23-1.65-.69-.39-.47-.6-1.14-.63-1.99h.92c.01.67.14,1.16.37,1.49.24.32.57.48,1,.48s.77-.2,1-.6c.23-.4.35-.99.35-1.78v-7.8h1.01v7.49c0,1.1-.2,1.95-.61,2.53-.4.58-.99.87-1.75.87h0ZM14.35,26.54c.44,0,.81-.17,1.1-.51.3-.34.5-.8.58-1.38h.73c-.12.79-.4,1.41-.84,1.86-.44.44-.98.66-1.61.66-.53,0-1-.16-1.4-.48-.39-.32-.7-.77-.92-1.35-.21-.59-.32-1.28-.32-2.06s.11-1.49.32-2.09c.21-.59.52-1.05.91-1.37.4-.33.86-.49,1.39-.49.79,0,1.4.34,1.84,1.01.45.68.68,1.63.7,2.86h-4.26v.08c0,1.01.16,1.81.46,2.4.31.57.75.86,1.32.86h0ZM14.31,19.97c-.48,0-.88.23-1.17.69-.3.45-.48,1.09-.54,1.92h3.39c-.07-.84-.25-1.48-.54-1.94-.28-.45-.66-.68-1.13-.68h0ZM19.53,27.17c-.42,0-.73-.18-.94-.55-.21-.37-.31-.94-.31-1.7v-4.79h-.85l.14-.63h.73l.35-2.12h.53v2.12h1.33l-.13.63h-1.2v5c0,.93.22,1.4.66,1.4.23,0,.46-.1.68-.29v.66c-.27.18-.6.28-.98.28h0ZM24.56,27.17c-.98,0-1.74-.3-2.31-.91-.56-.6-.87-1.46-.93-2.58h.87c.04.94.26,1.64.64,2.09.39.44.96.66,1.71.66.67,0,1.17-.18,1.52-.55.36-.37.53-.9.53-1.58,0-.41-.07-.75-.2-1.03-.14-.28-.37-.52-.7-.74-.32-.21-.78-.41-1.37-.6-.94-.29-1.64-.65-2.12-1.1-.47-.46-.71-1.1-.71-1.94,0-.92.27-1.61.81-2.07.54-.47,1.26-.71,2.14-.71s1.6.26,2.09.77c.5.5.8,1.2.87,2.1h-.86c-.1-.75-.33-1.29-.69-1.63-.36-.34-.85-.51-1.48-.51s-1.08.16-1.41.48c-.32.32-.47.76-.47,1.32,0,.34.06.63.18.86s.34.45.64.64c.31.19.75.38,1.32.57.7.22,1.26.47,1.68.74.43.27.75.61.96,1.04.21.42.32.96.32,1.61,0,.96-.27,1.71-.82,2.26-.54.53-1.28.8-2.22.8h0ZM31.31,26.54c.44,0,.81-.17,1.1-.51.3-.34.5-.8.58-1.38h.73c-.12.79-.4,1.41-.84,1.86-.44.44-.98.66-1.61.66-.53,0-1-.16-1.4-.48-.39-.32-.7-.77-.92-1.35-.21-.59-.32-1.28-.32-2.06s.11-1.49.32-2.09c.21-.59.52-1.05.91-1.37.4-.33.86-.49,1.39-.49.79,0,1.4.34,1.84,1.01.45.68.68,1.63.7,2.86h-4.26v.08c0,1.01.16,1.81.46,2.4.31.57.75.86,1.32.86h0ZM31.27,19.97c-.48,0-.88.23-1.17.69-.3.45-.48,1.09-.54,1.92h3.39c-.07-.84-.25-1.48-.54-1.94-.28-.45-.66-.68-1.13-.68h0ZM36.49,27.17c-.42,0-.73-.18-.94-.55-.21-.37-.31-.94-.31-1.7v-4.79h-.85l.14-.63h.73l.35-2.12h.53v2.12h1.33l-.13.63h-1.2v5c0,.93.22,1.4.66,1.4.23,0,.46-.1.68-.29v.66c-.27.18-.6.28-.98.28h0Z"/>
</svg>